<svg height="484pt" viewBox="0 -33 484 484" width="484pt" xmlns="http://www.w3.org/2000/svg"><path d="m475.988281 95.140625v225.628906c0 16.308594-12.597656 29.519531-28.136719 29.519531h-31.863281v-253.058593c0-.699219-.019531-1.390625-.078125-2.082031l.078125-.007813zm0 0" fill="#f4b844"/><path d="m475.988281 37.230469v57.910156h-60l-.078125.007813c-1.011718-15.339844-13.191406-27.4375-28.058594-27.4375h-144.441406c4.769532-3.820313 7.53125-9.609376 7.488282-15.722657 0-10.867187-8.398438-19.679687-18.757813-19.679687s-18.761719 8.8125-18.761719 19.679687c-.039062 6.113281 2.71875 11.90625 7.492188 15.722657h-38.421875c4.769531-3.820313 7.523437-9.613282 7.480469-15.722657 0-10.867187-8.390626-19.679687-18.75-19.679687-10.359376 0-18.757813 8.8125-18.757813 19.679687-.046875 6.109375 2.710937 11.902344 7.476563 15.722657h-38.398438c4.757812-3.824219 7.511719-9.617188 7.46875-15.722657 0-10.867187-8.398438-19.679687-18.757812-19.679687-10.359376 0-18.761719 8.8125-18.761719 19.679687-.039063 6.109375 2.71875 11.898438 7.480469 15.722657h-30.917969v-30.480469c0-16.308594 12.589843-29.519531 28.128906-29.519531h351.710937c15.539063 0 28.136719 13.210937 28.136719 29.519531zm0 0" fill="#00acea"/><path d="m415.988281 350.289062v30.480469c0 16.308594-12.597656 29.519531-28.136719 29.519531h-86.3125c5.386719-9.238281 9.3125-19.253906 11.640626-29.6875l27.730468-2.722656v-37.769531l-28.050781-2.710937c-2.664063-12.273438-7.597656-23.9375-14.550781-34.398438l17.910156-21.601562-26.367188-26.648438-21.601562 17.910156c-10.515625-6.875-22.191406-11.785156-34.460938-14.488281l-2.71875-28h-37.820312l-2.710938 28c-12.289062 2.636719-23.976562 7.554687-34.460937 14.488281l-21.597656-17.910156-26.699219 26.648438 17.910156 21.601562c-6.875 10.503906-11.800781 22.152344-14.550781 34.398438l-28.050781 2.710937v37.769531l28.050781 2.722656c2.269531 10.445313 6.183594 20.46875 11.597656 29.6875h-86.597656c-15.539063 0-28.128906-13.210937-28.128906-29.519531v-225.628906h407.976562zm0 0" fill="#fedb41"/><path d="m243.410156 67.710938h144.441406c14.867188 0 27.046876 12.097656 28.058594 27.4375.058594.691406.078125 1.382812.078125 2.082031v57.910156h-407.976562v-57.910156c0-16.308594 12.589843-29.519531 28.128906-29.519531zm-52.511718 44.277343c0-10.867187-8.398438-19.679687-18.757813-19.679687s-18.761719 8.8125-18.761719 19.679687c0 10.871094 8.402344 19.671875 18.761719 19.671875s18.757813-8.808594 18.757813-19.671875zm-60.96875 0c0-10.867187-8.390626-19.679687-18.75-19.679687-10.359376 0-18.757813 8.8125-18.757813 19.679687 0 10.871094 8.398437 19.671875 18.757813 19.671875 10.359374 0 18.75-8.808594 18.75-19.671875zm-60.960938 0c0-10.867187-8.398438-19.679687-18.757812-19.679687-10.359376 0-18.761719 8.8125-18.761719 19.679687 0 10.871094 8.402343 19.671875 18.761719 19.671875 10.359374 0 18.757812-8.808594 18.757812-19.671875zm0 0" fill="#00acea"/><path d="m340.910156 340.109375v37.769531l-27.730468 2.722656c-2.328126 10.433594-6.253907 20.449219-11.640626 29.6875h-46.550781c21.59375-18.058593 29.585938-47.691406 20.003907-74.160156-9.582032-26.46875-34.695313-44.117187-62.84375-44.167968-28.148438-.054688-53.324219 17.503906-63.003907 43.933593-9.679687 26.433594-1.796875 56.09375 19.726563 74.234375v.160156h-46.132813c-5.414062-9.21875-9.328125-19.242187-11.597656-29.6875l-28.050781-2.722656v-37.769531l28.050781-2.710937c2.75-12.246094 7.675781-23.894532 14.550781-34.398438l-17.910156-21.601562 26.699219-26.648438 21.597656 17.910156c10.484375-6.933594 22.171875-11.851562 34.460937-14.488281l2.710938-28h37.820312l2.71875 28c12.269532 2.703125 23.945313 7.613281 34.460938 14.488281l21.601562-17.910156 26.367188 26.648438-17.910156 21.601562c6.953125 10.460938 11.886718 22.125 14.550781 34.398438zm0 0" fill="#00efd1"/><path d="m278.988281 359c.015625 19.8125-8.777343 38.605469-24 51.289062h-86.117187v-.160156c-23.648438-20-30.480469-53.617187-16.515625-81.261718 13.96875-27.644532 45.082031-42.089844 75.210937-34.917969 30.132813 7.167969 51.40625 34.078125 51.421875 65.050781zm0 0" fill="#fedb41"/><g fill="#00efd1"><path d="m250.898438 51.988281c.042968 6.113281-2.71875 11.902344-7.488282 15.722657h-22.539062c-4.773438-3.816407-7.53125-9.609376-7.492188-15.722657 0-10.867187 8.402344-19.679687 18.761719-19.679687s18.757813 8.8125 18.757813 19.679687zm0 0"/><path d="m189.929688 51.988281c.042968 6.109375-2.710938 11.902344-7.480469 15.722657h-22.550781c-4.765626-3.820313-7.523438-9.613282-7.476563-15.722657 0-10.867187 8.398437-19.679687 18.757813-19.679687 10.359374 0 18.75 8.8125 18.75 19.679687zm0 0"/><path d="m172.140625 92.308594c10.359375 0 18.757813 8.8125 18.757813 19.679687 0 10.871094-8.398438 19.671875-18.757813 19.671875s-18.761719-8.808594-18.761719-19.671875c0-10.859375 8.402344-19.679687 18.761719-19.679687zm0 0"/><path d="m128.96875 51.988281c.042969 6.105469-2.710938 11.898438-7.46875 15.722657h-22.570312c-4.761719-3.824219-7.519532-9.613282-7.480469-15.722657 0-10.867187 8.402343-19.679687 18.761719-19.679687 10.359374 0 18.757812 8.8125 18.757812 19.679687zm0 0"/><path d="m111.179688 92.308594c10.359374 0 18.75 8.8125 18.75 19.679687 0 10.871094-8.390626 19.671875-18.75 19.671875-10.359376 0-18.757813-8.808594-18.757813-19.671875 0-10.859375 8.398437-19.679687 18.757813-19.679687zm0 0"/><path d="m50.210938 92.308594c10.359374 0 18.757812 8.8125 18.757812 19.679687 0 10.871094-8.398438 19.671875-18.757812 19.671875-10.359376 0-18.761719-8.808594-18.761719-19.671875 0-10.859375 8.402343-19.679687 18.761719-19.679687zm0 0"/></g><path d="m111.179688 139.660156c14.75 0 26.75-12.414062 26.75-27.671875 0-15.257812-12-27.679687-26.75-27.679687s-26.757813 12.417968-26.757813 27.679687c0 15.265625 12.003906 27.671875 26.757813 27.671875zm0-39.351562c5.925781 0 10.75 5.242187 10.75 11.679687 0 6.441407-4.824219 11.671875-10.75 11.671875-5.925782 0-10.757813-5.234375-10.757813-11.671875 0-6.433593 4.824219-11.679687 10.757813-11.679687zm0 0" fill="#083863"/><path d="m172.140625 139.660156c14.753906 0 26.757813-12.414062 26.757813-27.671875 0-15.257812-12-27.679687-26.757813-27.679687-14.761719 0-26.761719 12.417968-26.761719 27.679687 0 15.265625 12.003906 27.671875 26.761719 27.671875zm0-39.351562c5.933594 0 10.757813 5.242187 10.757813 11.679687 0 6.441407-4.824219 11.671875-10.757813 11.671875s-10.761719-5.234375-10.761719-11.671875c0-6.433593 4.828125-11.679687 10.761719-11.679687zm0 0" fill="#083863"/><path d="m50.210938 139.660156c14.753906 0 26.757812-12.414062 26.757812-27.671875 0-15.257812-12-27.679687-26.757812-27.679687-14.761719 0-26.761719 12.417968-26.761719 27.679687 0 15.265625 12.003906 27.671875 26.761719 27.671875zm0-39.351562c5.933593 0 10.757812 5.242187 10.757812 11.679687 0 6.441407-4.824219 11.671875-10.757812 11.671875-5.933594 0-10.761719-5.234375-10.761719-11.671875 0-6.433593 4.828125-11.679687 10.761719-11.679687zm0 0" fill="#083863"/><path d="m447.851562 0h-351.710937c-19.921875 0-36.140625 16.542969-36.140625 37.230469v22.769531h-23.859375c-19.921875 0-36.140625 16.542969-36.140625 37.230469v283.539062c0 20.6875 16.21875 37.230469 36.140625 37.230469h351.710937c19.925782 0 36.148438-16.542969 36.148438-37.230469v-22.769531h23.851562c19.925782 0 36.148438-16.542969 36.148438-37.230469v-283.539062c0-20.6875-16.222656-37.230469-36.148438-37.230469zm-371.851562 37.230469c0-11.867188 9.039062-21.230469 20.140625-21.230469h351.710937c11.097657 0 20.148438 9.363281 20.148438 21.230469v49.769531h-45.351562c-4.082032-15.886719-18.398438-26.992188-34.800782-27h-130c.664063-2.570312 1.015625-5.210938 1.050782-7.863281 0-15.265625-12-27.753907-26.761719-27.753907-14.757813 0-26.757813 12.527344-26.757813 27.789063.03125 2.640625.382813 5.269531 1.050782 7.828125h-9.546876c.664063-2.570312 1.015626-5.210938 1.046876-7.863281 0-15.265625-12-27.753907-26.75-27.753907s-26.757813 12.527344-26.757813 27.789063c.03125 2.640625.382813 5.269531 1.046875 7.828125h-9.546875c.664063-2.570312 1.015625-5.210938 1.046875-7.863281 0-15.265625-12-27.753907-26.757812-27.753907-14.761719 0-26.761719 12.527344-26.761719 27.789063.035156 2.640625.386719 5.269531 1.050781 7.828125h-8.5zm148.085938 22.769531c-1.789063-2.226562-2.746094-5.007812-2.707032-7.863281 0-6.441407 4.828125-11.753907 10.761719-11.753907s10.757813 5.347657 10.757813 11.789063c.027343 2.84375-.933594 5.609375-2.714844 7.828125zm-60.96875 0c-1.785157-2.226562-2.742188-5.007812-2.699219-7.863281 0-6.441407 4.828125-11.753907 10.761719-11.753907 5.929687 0 10.75 5.347657 10.75 11.789063.039062 2.84375-.914063 5.613281-2.703126 7.828125zm-60.957032 0c-1.777344-2.234375-2.734375-5.011719-2.710937-7.863281 0-6.441407 4.828125-11.753907 10.761719-11.753907 5.933593 0 10.757812 5.347657 10.757812 11.789063.042969 2.84375-.914062 5.613281-2.699219 7.828125zm-66.019531 16h351.710937c10.519532 0 19.339844 8.625 20.074219 19.820312 0 .054688.015625.039063.019531.101563.035157.390625.054688.757813.054688 1.3125v49.765625h-392v-49.769531c0-11.867188 9.039062-21.230469 20.140625-21.230469zm82.816406 302.753906c-.765625-3.386718-3.632812-5.886718-7.089843-6.1875l-20.867188-1.949218v-23.242188l20.863281-2.011719c3.453125-.332031 6.300781-2.839843 7.0625-6.222656 2.542969-11.3125 7.101563-22.078125 13.457031-31.773437 1.914063-2.9375 1.695313-6.773438-.539062-9.472657l-13.25-15.984375 16.382812-16.355468 16 13.261718c2.714844 2.25 6.578126 2.460938 9.519532.515625 9.648437-6.390625 20.410156-10.917969 31.730468-13.339843 3.414063-.773438 5.949219-3.652344 6.28125-7.136719l2.003907-20.855469h23.300781l2.015625 20.859375c.335937 3.480469 2.882813 6.347656 6.300781 7.09375 11.328125 2.515625 22.101563 7.058594 31.804688 13.417969 2.929687 1.886718 6.746094 1.65625 9.429687-.5625l15.960938-13.230469 16.117187 16.292969-13.28125 16.019531c-2.253906 2.722656-2.457031 6.597656-.5 9.539063 6.402344 9.628906 10.941406 20.371093 13.382813 31.671874.761719 3.402344 3.621093 5.925782 7.09375 6.257813l20.863281 2.015625v23.25l-20.554688 2.011719c-3.429687.273437-6.28125 2.738281-7.054687 6.085937-1.75 8.128906-4.640625 15.964844-8.589844 23.277344h-23.613281c8.902344-12 13.800781-27.441406 13.800781-43.144531.007813-41.402344-33.546875-74.972657-74.949219-74.984375-41.398437-.007813-74.972656 33.546875-74.980468 74.949218 0 15.691407 4.898437 31.179688 13.800781 43.179688h-23.402344c-3.925781-7.304688-6.789062-15.132812-8.5-23.246094zm53.132813 23.246094c-12.148438-11.050781-19.0625-26.722656-19.03125-43.144531-.007813-32.566407 26.382812-58.972657 58.949218-58.984375 32.566407-.007813 58.972657 26.382812 58.980469 58.949218.039063 16.433594-6.871093 32.117188-19.023437 43.179688zm235.910156-21.230469c0 11.867188-9.046875 21.230469-20.148438 21.230469h-73.339843c2.109375-4.546875 3.804687-9.277344 5.058593-14.132812l22.164063-2.101563c4.09375-.363281 7.238281-3.777344 7.265625-7.886719v-37.769531c-.019531-4.128906-3.164062-7.570313-7.277344-7.960937l-22.421875-2.167969c-2.527343-9.226563-6.269531-18.078125-11.125-26.324219l14.214844-17.148438c2.625-3.167968 2.417969-7.8125-.476563-10.734374l-26.371093-26.652344c-2.917969-2.945313-7.601563-3.175782-10.792969-.527344l-17.207031 14.265625c-8.269531-4.816406-17.121094-8.550781-26.34375-11.113281l-2.171875-22.433594c-.390625-4.117188-3.824219-7.273438-7.957032-7.3125h-37.820312c-4.136719.039062-7.574219 3.195312-7.964844 7.3125l-2.160156 22.386719c-9.246094 2.515625-18.113281 6.25-26.375 11.101562l-17.164062-14.222656c-3.179688-2.632813-7.835938-2.414063-10.757813.5l-26.699219 26.652344c-2.925781 2.921875-3.144531 7.589843-.507812 10.773437l14.25 17.183594c-4.808594 8.253906-8.542969 17.089844-11.117188 26.289062l-22.476562 2.167969c-4.113282.390625-7.257813 3.835938-7.277344 7.964844v37.769531c.019531 4.128906 3.164062 7.570313 7.273438 7.964844l22.433593 2.027344c1.246094 4.851562 2.933594 9.582031 5.039063 14.128906h-73.605469c-11.101563 0-20.140625-9.363281-20.140625-21.230469v-217.769531h392zm39.851562-38.769531h-23.851562v-239h44v217.769531c0 11.867188-9.046875 21.230469-20.148438 21.230469zm0 0" fill="#083863"/></svg>