<svg width="640" height="640" xmlns="http://www.w3.org/2000/svg" xmlns:xlink="http://www.w3.org/1999/xlink" preserveAspectRatio="xMidYMid meet">
 <defs>
  <path id="bySytbBC1" d="m489.03,120c17.1,0 30.97,13.87 30.97,30.97c0,73.81 0,264.25 0,338.06c0,17.1 -13.87,30.97 -30.97,30.97c-73.81,0 -264.25,0 -338.06,0c-17.1,0 -30.97,-13.87 -30.97,-30.97c0,-73.81 0,-264.25 0,-338.06c0,-17.1 13.87,-30.97 30.97,-30.97c73.81,0 264.25,0 338.06,0z"/>
  <path id="a3Q8UHRTS8" d="m217.91,415.5c2.95,0 5.34,2.39 5.34,5.34c0,12.73 0,45.59 0,58.32c0,2.95 -2.39,5.34 -5.34,5.34c-12.73,0 -45.59,0 -58.32,0c-2.95,0 -5.34,-2.39 -5.34,-5.34c0,-12.73 0,-45.59 0,-58.32c0,-2.95 2.39,-5.34 5.34,-5.34c12.73,0 45.59,0 58.32,0z"/>
  <path id="a1iJVPLmuc" d="m305.41,415.5c2.95,0 5.34,2.39 5.34,5.34c0,12.73 0,45.59 0,58.32c0,2.95 -2.39,5.34 -5.34,5.34c-12.73,0 -45.59,0 -58.32,0c-2.95,0 -5.34,-2.39 -5.34,-5.34c0,-12.73 0,-45.59 0,-58.32c0,-2.95 2.39,-5.34 5.34,-5.34c12.73,0 45.59,0 58.32,0z"/>
  <path id="h15hLwO2Sk" d="m392.91,415.5c2.95,0 5.34,2.39 5.34,5.34c0,12.73 0,45.59 0,58.32c0,2.95 -2.39,5.34 -5.34,5.34c-12.73,0 -45.59,0 -58.32,0c-2.95,0 -5.34,-2.39 -5.34,-5.34c0,-12.73 0,-45.59 0,-58.32c0,-2.95 2.39,-5.34 5.34,-5.34c12.73,0 45.59,0 58.32,0z"/>
  <path id="ad0S0v2c6" d="m480.41,415.5c2.95,0 5.34,2.39 5.34,5.34c0,12.73 0,45.59 0,58.32c0,2.95 -2.39,5.34 -5.34,5.34c-12.73,0 -45.59,0 -58.32,0c-2.95,0 -5.34,-2.39 -5.34,-5.34c0,-12.73 0,-45.59 0,-58.32c0,-2.95 2.39,-5.34 5.34,-5.34c12.73,0 45.59,0 58.32,0z"/>
  <path id="jtMfWy3pL" d="m485.75,216.66c0,2.95 -2.39,5.34 -5.34,5.34c-12.73,0 -45.59,0 -58.32,0c-2.95,0 -5.34,-2.39 -5.34,-5.34c0,-12.73 0,-45.59 0,-58.32c0,-2.95 2.39,-5.34 5.34,-5.34c12.73,0 45.59,0 58.32,0c2.95,0 5.34,2.39 5.34,5.34c0,12.73 0,45.59 0,58.32z"/>
  <path id="a6xq7eHrE" d="m485.75,304.16c0,2.95 -2.39,5.34 -5.34,5.34c-12.73,0 -45.59,0 -58.32,0c-2.95,0 -5.34,-2.39 -5.34,-5.34c0,-12.73 0,-45.59 0,-58.32c0,-2.95 2.39,-5.34 5.34,-5.34c12.73,0 45.59,0 58.32,0c2.95,0 5.34,2.39 5.34,5.34c0,12.73 0,45.59 0,58.32z"/>
  <path id="c1xGlxfB8o" d="m485.75,391.66c0,2.95 -2.39,5.34 -5.34,5.34c-12.73,0 -45.59,0 -58.32,0c-2.95,0 -5.34,-2.39 -5.34,-5.34c0,-12.73 0,-45.59 0,-58.32c0,-2.95 2.39,-5.34 5.34,-5.34c12.73,0 45.59,0 58.32,0c2.95,0 5.34,2.39 5.34,5.34c0,12.73 0,45.59 0,58.32z"/>
  <path id="b2wX9eqB4D" d="m305.41,328c2.95,0 5.34,2.39 5.34,5.34c0,12.73 0,45.59 0,58.32c0,2.95 -2.39,5.34 -5.34,5.34c-12.73,0 -45.59,0 -58.32,0c-2.95,0 -5.34,-2.39 -5.34,-5.34c0,-12.73 0,-45.59 0,-58.32c0,-2.95 2.39,-5.34 5.34,-5.34c12.73,0 45.59,0 58.32,0z"/>
  <path id="b41y7B2vQ" d="m392.91,328c2.95,0 5.34,2.39 5.34,5.34c0,12.73 0,45.59 0,58.32c0,2.95 -2.39,5.34 -5.34,5.34c-12.73,0 -45.59,0 -58.32,0c-2.95,0 -5.34,-2.39 -5.34,-5.34c0,-12.73 0,-45.59 0,-58.32c0,-2.95 2.39,-5.34 5.34,-5.34c12.73,0 45.59,0 58.32,0z"/>
  <path id="d2pCQEQktp" d="m392.91,240.5c2.95,0 5.34,2.39 5.34,5.34c0,12.73 0,45.59 0,58.32c0,2.95 -2.39,5.34 -5.34,5.34c-12.73,0 -45.59,0 -58.32,0c-2.95,0 -5.34,-2.39 -5.34,-5.34c0,-12.73 0,-45.59 0,-58.32c0,-2.95 2.39,-5.34 5.34,-5.34c12.73,0 45.59,0 58.32,0z"/>
 </defs>
 <g>
  <title>background</title>
  <rect fill="none" id="canvas_background" height="602" width="802" y="-1" x="-1"/>
 </g>
 <g>
  <title>Layer 1</title>
  <g stroke="null" id="svg_1">
   <g stroke="null" id="svg_2">
    <g stroke="null" id="svg_3">
     <use transform="matrix(1.514367938041687,0,0,1.514367938041687,-8.506853454308839,-7.992485516267152) " stroke="null" x="-103.46154" y="-104.46154" id="svg_4" fill="#2a4365" xlink:href="#bySytbBC1"/>
    </g>
    <g stroke="null" id="svg_5">
     <use transform="matrix(1.514367938041687,0,0,1.514367938041687,-8.506853454308839,-7.992485516267152) " stroke="null" x="-103.46154" y="-104.46154" id="svg_6" fill="#ffffff" xlink:href="#a3Q8UHRTS8"/>
    </g>
    <g stroke="null" id="svg_7">
     <use transform="matrix(1.514367938041687,0,0,1.514367938041687,-8.506853454308839,-7.992485516267152) " stroke="null" x="-103.46154" y="-104.46154" id="svg_8" fill="#ffffff" xlink:href="#a1iJVPLmuc"/>
    </g>
    <g stroke="null" id="svg_9">
     <use transform="matrix(1.514367938041687,0,0,1.514367938041687,-8.506853454308839,-7.992485516267152) " stroke="null" x="-103.46154" y="-104.46154" id="svg_10" fill="#ffffff" xlink:href="#h15hLwO2Sk"/>
    </g>
    <g stroke="null" id="svg_11">
     <use transform="matrix(1.514367938041687,0,0,1.514367938041687,-8.506853454308839,-7.992485516267152) " stroke="null" x="-103.46154" y="-104.46154" id="svg_12" fill="#ffffff" xlink:href="#ad0S0v2c6"/>
    </g>
    <g stroke="null" id="svg_13">
     <use transform="matrix(1.514367938041687,0,0,1.514367938041687,-8.506853454308839,-7.992485516267152) " stroke="null" x="-103.46154" y="-104.46154" id="svg_14" fill="#ffffff" xlink:href="#jtMfWy3pL"/>
    </g>
    <g stroke="null" id="svg_15">
     <use transform="matrix(1.514367938041687,0,0,1.514367938041687,-8.506853454308839,-7.992485516267152) " stroke="null" x="-103.46154" y="-104.46154" id="svg_16" fill="#ffffff" xlink:href="#a6xq7eHrE"/>
    </g>
    <g stroke="null" id="svg_17">
     <use transform="matrix(1.514367938041687,0,0,1.514367938041687,-8.506853454308839,-7.992485516267152) " stroke="null" x="-103.46154" y="-104.46154" id="svg_18" fill="#ffffff" xlink:href="#c1xGlxfB8o"/>
    </g>
    <g stroke="null" id="svg_19">
     <use transform="matrix(1.514367938041687,0,0,1.514367938041687,-8.506853454308839,-7.992485516267152) " stroke="null" x="-103.46154" y="-104.46154" id="svg_20" fill="#ffffff" xlink:href="#b2wX9eqB4D"/>
    </g>
    <g stroke="null" id="svg_21">
     <use transform="matrix(1.514367938041687,0,0,1.514367938041687,-8.506853454308839,-7.992485516267152) " stroke="null" x="-103.46154" y="-104.46154" id="svg_22" fill="#ffffff" xlink:href="#b41y7B2vQ"/>
    </g>
    <g stroke="null" id="svg_23">
     <use transform="matrix(1.514367938041687,0,0,1.514367938041687,-8.506853454308839,-7.992485516267152) " stroke="null" x="-103.46154" y="-104.46154" id="svg_24" fill="#ffffff" xlink:href="#d2pCQEQktp"/>
    </g>
   </g>
  </g>
 </g>
</svg>