<svg width="300" height="300" xmlns="http://www.w3.org/2000/svg" class="iconLeft">
 <!---->
 <defs>
  <!---->
  <linearGradient y2="0%" x2="100%" y1="0%" x1="0%" id="21fad26b-86ef-4462-94dc-c8cc2fc01b6f" gradientTransform="rotate(25)">
   <stop stop-color="#4B279B" offset="0%"/>
   <stop stop-color="#DF99D8" offset="100%"/>
  </linearGradient>
 </defs>
 <defs>
  <!---->
 </defs>

 <!---->
 <g>
  <title>background</title>
  <rect fill="none" id="canvas_background" height="602" width="802" y="-1" x="-1"/>
 </g>
 <g>
  <title>Layer 1</title>
  <rect id="svg_1" class="logo-background-square" height="300px" width="300px" y="0" x="0" fill="transparent"/>
  <g transform="matrix(8.897185572185933,0,0,8.897185572185933,51.03770110386776,-87.42520170528275) " fill="url(#21fad26b-86ef-4462-94dc-c8cc2fc01b6f)" id="ef9cec47-827a-45ea-9a1c-60b0e3be803c">
   <path id="svg_3" d="m11.15629,42.66499c8.837,0 16,-7.163 16,-16s-7.163,-16 -16,-16s-16,7.163 -16,16s7.163,16 16,16zm-1.183,-25.579l2,0l0,8.886l8.887,0l0,2l-10.887,0l0,-10.886zm-5.959,0.437l2,0l0,14.283l14.283,0l0,2l-16.283,0l0,-16.283z"/>
  </g>
 </g>
</svg>