<svg width="24" height="24" xmlns="http://www.w3.org/2000/svg">

 <g>
  <title>background</title>
  <rect fill="none" id="canvas_background" height="602" width="802" y="-1" x="-1"/>
 </g>
 <g>
  <title>Layer 1</title>
  <g stroke="null" opacity="0.75" id="Icons">
   <path stroke="null" d="m17.11827,16.01531l-2.6531,-2.6531c-0.05521,-0.05521 -0.1222,-0.09349 -0.19655,-0.11484c0.4704,-0.66033 0.7494,-1.46642 0.7494,-2.3395c0,-2.2357 -1.81315,-4.04885 -4.04885,-4.04885s-4.04885,1.81315 -4.04885,4.04885s1.81315,4.04885 4.04885,4.04885c0.87308,0 1.67917,-0.279 2.34097,-0.7494c0.02061,0.07435 0.05889,0.14061 0.1141,0.19655l2.6531,2.6531c0.22158,0.22158 0.63162,0.16711 0.91946,-0.12147c0.28784,-0.28784 0.34231,-0.69861 0.12147,-0.92019zm-6.1491,-2.5309c-1.42225,0 -2.57654,-1.15429 -2.57654,-2.57654s1.15429,-2.57654 2.57654,-2.57654s2.57654,1.15429 2.57654,2.57654s-1.15429,2.57654 -2.57654,2.57654z" id="search-big"/>
  </g>
  <g id="Guides"/>
 </g>
</svg>